# xmcd CD database file
#
# Track frame offsets:
#	150
#	19512
#	40334
#	61042
#	78563
#	106616
#	125923
#	148136
#	169446
#	191547
#	214833
#	243711
#	264803
#	284857
#
# Disc length: 4184 seconds
#
# Revision: 0
# Processed by: cddbd v1.5.1PL0 Copyright (c) Steve Scherf et al.
# Submitted via: CDex 1.51
#
DISCID=d210560e
DTITLE=Chevelle - 2004-10-18-Ziggy's-Winston-Salem, NC
DYEAR=2004
DGENRE=Jazz
TTITLE0=Another Know It All 
TTITLE1=Forfeit 
TTITLE2=Send the Pain Below
TTITLE3=The Clincher
TTITLE4=Emotional Drought
TTITLE5=Comfortable Liar 
TTITLE6=The Red
TTITLE7=Get Some 
TTITLE8=Closure 
TTITLE9=Family System 
TTITLE10=Panic Prone 
TTITLE11=Still Running 
TTITLE12=Vitamin R (Leading Us Along) 
TTITLE13=Wonder What's Next
EXTD=YEAR: 2004
EXTT0=
EXTT1=
EXTT2=
EXTT3=
EXTT4=
EXTT5=
EXTT6=
EXTT7=
EXTT8=
EXTT9=
EXTT10=
EXTT11=
EXTT12=
EXTT13=
PLAYORDER=
